<mxfile host="app.diagrams.net" modified="2023-07-04T14:36:12.192Z" agent="Mozilla/5.0 (Macintosh; Intel Mac OS X 10_15_7) AppleWebKit/605.1.15 (KHTML, like Gecko) Version/16.5.1 Safari/605.1.15" etag="i1Z_8XkrQIUNQZ5vKwGO" version="21.3.4">
  <diagram id="TBylTus64fqfxu123b60" name="Page-1">
    <mxGraphModel dx="1242" dy="747" grid="1" gridSize="10" guides="1" tooltips="1" connect="1" arrows="1" fold="1" page="1" pageScale="1" pageWidth="827" pageHeight="1169" math="0" shadow="0">
      <root>
        <mxCell id="0" />
        <mxCell id="1" parent="0" />
        <mxCell id="h6HrE7nHWte762xZoorV-7" value="&lt;font style=&quot;font-size: 18px;&quot;&gt;Amazon &lt;br&gt;Cognito&lt;/font&gt;" style="outlineConnect=0;dashed=0;verticalLabelPosition=bottom;verticalAlign=top;align=center;html=1;shape=mxgraph.aws3.cognito;fillColor=#AD688B;gradientColor=none;" parent="1" vertex="1">
          <mxGeometry x="583.5" y="121.5" width="85.5" height="98.5" as="geometry" />
        </mxCell>
        <mxCell id="h6HrE7nHWte762xZoorV-8" value="&lt;font style=&quot;font-size: 18px;&quot;&gt;AWS STS&lt;/font&gt;" style="outlineConnect=0;dashed=0;verticalLabelPosition=bottom;verticalAlign=top;align=center;html=1;shape=mxgraph.aws3.sts;fillColor=#759C3E;gradientColor=none;" parent="1" vertex="1">
          <mxGeometry x="825.99" y="130" width="114.01" height="81.5" as="geometry" />
        </mxCell>
        <mxCell id="h6HrE7nHWte762xZoorV-14" value="" style="endArrow=none;html=1;rounded=0;fontSize=20;strokeWidth=2;startArrow=none;" parent="1" source="h6HrE7nHWte762xZoorV-18" edge="1">
          <mxGeometry width="50" height="50" relative="1" as="geometry">
            <mxPoint x="110" y="792" as="sourcePoint" />
            <mxPoint x="108.5" y="282" as="targetPoint" />
          </mxGeometry>
        </mxCell>
        <mxCell id="h6HrE7nHWte762xZoorV-15" value="" style="endArrow=none;html=1;rounded=0;fontSize=20;strokeWidth=2;startArrow=none;" parent="1" source="h6HrE7nHWte762xZoorV-21" edge="1">
          <mxGeometry width="50" height="50" relative="1" as="geometry">
            <mxPoint x="368.75" y="790.75" as="sourcePoint" />
            <mxPoint x="367.25" y="280.75" as="targetPoint" />
          </mxGeometry>
        </mxCell>
        <mxCell id="h6HrE7nHWte762xZoorV-16" value="" style="endArrow=none;html=1;rounded=0;fontSize=20;strokeWidth=2;startArrow=none;" parent="1" source="h6HrE7nHWte762xZoorV-39" edge="1">
          <mxGeometry width="50" height="50" relative="1" as="geometry">
            <mxPoint x="629" y="792" as="sourcePoint" />
            <mxPoint x="627.5" y="282" as="targetPoint" />
          </mxGeometry>
        </mxCell>
        <mxCell id="h6HrE7nHWte762xZoorV-17" value="" style="endArrow=none;html=1;rounded=0;fontSize=20;strokeWidth=2;" parent="1" edge="1">
          <mxGeometry width="50" height="50" relative="1" as="geometry">
            <mxPoint x="890" y="960" as="sourcePoint" />
            <mxPoint x="888.25" y="280" as="targetPoint" />
          </mxGeometry>
        </mxCell>
        <mxCell id="h6HrE7nHWte762xZoorV-18" value="" style="rounded=0;whiteSpace=wrap;html=1;fontSize=20;rotation=90;" parent="1" vertex="1">
          <mxGeometry x="-204.43" y="623.43" width="626.87" height="10" as="geometry" />
        </mxCell>
        <mxCell id="h6HrE7nHWte762xZoorV-19" value="" style="endArrow=none;html=1;rounded=0;fontSize=20;strokeWidth=2;" parent="1" target="h6HrE7nHWte762xZoorV-18" edge="1">
          <mxGeometry width="50" height="50" relative="1" as="geometry">
            <mxPoint x="110" y="960" as="sourcePoint" />
            <mxPoint x="108.5" y="282" as="targetPoint" />
          </mxGeometry>
        </mxCell>
        <mxCell id="h6HrE7nHWte762xZoorV-20" value="" style="endArrow=classic;html=1;rounded=0;strokeWidth=2;fontSize=20;" parent="1" edge="1">
          <mxGeometry width="50" height="50" relative="1" as="geometry">
            <mxPoint x="114" y="331" as="sourcePoint" />
            <mxPoint x="363" y="331" as="targetPoint" />
          </mxGeometry>
        </mxCell>
        <mxCell id="h6HrE7nHWte762xZoorV-21" value="" style="rounded=0;whiteSpace=wrap;html=1;fontSize=20;rotation=90;" parent="1" vertex="1">
          <mxGeometry x="289.15" y="387.86" width="157.69" height="10" as="geometry" />
        </mxCell>
        <mxCell id="h6HrE7nHWte762xZoorV-24" value="" style="endArrow=none;html=1;rounded=0;fontSize=20;strokeWidth=2;startArrow=none;" parent="1" source="h6HrE7nHWte762xZoorV-77" target="h6HrE7nHWte762xZoorV-21" edge="1">
          <mxGeometry width="50" height="50" relative="1" as="geometry">
            <mxPoint x="369" y="890" as="sourcePoint" />
            <mxPoint x="367.25" y="280.75" as="targetPoint" />
          </mxGeometry>
        </mxCell>
        <mxCell id="h6HrE7nHWte762xZoorV-26" value="1. Execute gpg-generation.sh" style="text;html=1;strokeColor=none;fillColor=none;align=center;verticalAlign=middle;whiteSpace=wrap;rounded=0;fontSize=12;" parent="1" vertex="1">
          <mxGeometry x="156" y="297" width="166" height="30" as="geometry" />
        </mxCell>
        <mxCell id="h6HrE7nHWte762xZoorV-29" value="2. GetID" style="text;html=1;strokeColor=none;fillColor=none;align=center;verticalAlign=middle;whiteSpace=wrap;rounded=0;fontSize=12;" parent="1" vertex="1">
          <mxGeometry x="416" y="319" width="166" height="30" as="geometry" />
        </mxCell>
        <mxCell id="h6HrE7nHWte762xZoorV-33" value="" style="edgeStyle=orthogonalEdgeStyle;html=1;align=left;spacingLeft=2;endArrow=block;rounded=0;strokeWidth=2;fontSize=12;" parent="1" edge="1">
          <mxGeometry x="0.4667" y="26" relative="1" as="geometry">
            <mxPoint x="633.87" y="377.13" as="sourcePoint" />
            <Array as="points">
              <mxPoint x="700" y="377" />
              <mxPoint x="700" y="415" />
              <mxPoint x="639" y="415" />
            </Array>
            <mxPoint x="634" y="415" as="targetPoint" />
            <mxPoint as="offset" />
          </mxGeometry>
        </mxCell>
        <mxCell id="h6HrE7nHWte762xZoorV-34" value="" style="rounded=0;whiteSpace=wrap;html=1;fontSize=20;rotation=90;" parent="1" vertex="1">
          <mxGeometry x="564.56" y="390.19" width="127.38" height="10" as="geometry" />
        </mxCell>
        <mxCell id="h6HrE7nHWte762xZoorV-35" value="" style="endArrow=classic;html=1;rounded=0;strokeWidth=2;fontSize=20;" parent="1" edge="1">
          <mxGeometry width="50" height="50" relative="1" as="geometry">
            <mxPoint x="374" y="353.13" as="sourcePoint" />
            <mxPoint x="623" y="353.13" as="targetPoint" />
          </mxGeometry>
        </mxCell>
        <mxCell id="h6HrE7nHWte762xZoorV-36" value="3. Create new&lt;br&gt;&amp;nbsp;IdentityID" style="text;html=1;strokeColor=none;fillColor=none;align=center;verticalAlign=middle;whiteSpace=wrap;rounded=0;fontSize=12;" parent="1" vertex="1">
          <mxGeometry x="705" y="382.19" width="90" height="30" as="geometry" />
        </mxCell>
        <mxCell id="h6HrE7nHWte762xZoorV-37" value="" style="endArrow=none;html=1;rounded=0;strokeWidth=2;fontSize=20;startArrow=classic;startFill=1;endFill=0;" parent="1" edge="1">
          <mxGeometry width="50" height="50" relative="1" as="geometry">
            <mxPoint x="374.5" y="440" as="sourcePoint" />
            <mxPoint x="623.5" y="440" as="targetPoint" />
          </mxGeometry>
        </mxCell>
        <mxCell id="h6HrE7nHWte762xZoorV-38" value="4. Send IdentityID" style="text;html=1;strokeColor=none;fillColor=none;align=center;verticalAlign=middle;whiteSpace=wrap;rounded=0;fontSize=12;" parent="1" vertex="1">
          <mxGeometry x="414" y="406.19" width="166" height="30" as="geometry" />
        </mxCell>
        <mxCell id="h6HrE7nHWte762xZoorV-39" value="" style="rounded=0;whiteSpace=wrap;html=1;fontSize=20;rotation=90;" parent="1" vertex="1">
          <mxGeometry x="543.65" y="589.92" width="169.23" height="10" as="geometry" />
        </mxCell>
        <mxCell id="h6HrE7nHWte762xZoorV-40" value="" style="endArrow=none;html=1;rounded=0;fontSize=20;strokeWidth=2;" parent="1" target="h6HrE7nHWte762xZoorV-39" edge="1">
          <mxGeometry width="50" height="50" relative="1" as="geometry">
            <mxPoint x="629" y="960" as="sourcePoint" />
            <mxPoint x="627.5" y="282" as="targetPoint" />
          </mxGeometry>
        </mxCell>
        <mxCell id="h6HrE7nHWte762xZoorV-41" value="5. GetCredentialsForIdentity" style="text;html=1;strokeColor=none;fillColor=none;align=center;verticalAlign=middle;whiteSpace=wrap;rounded=0;fontSize=12;" parent="1" vertex="1">
          <mxGeometry x="415.5" y="495" width="166" height="30" as="geometry" />
        </mxCell>
        <mxCell id="h6HrE7nHWte762xZoorV-42" value="" style="endArrow=classic;html=1;rounded=0;strokeWidth=2;fontSize=20;" parent="1" edge="1">
          <mxGeometry width="50" height="50" relative="1" as="geometry">
            <mxPoint x="373.5" y="529.13" as="sourcePoint" />
            <mxPoint x="622.5" y="529.13" as="targetPoint" />
          </mxGeometry>
        </mxCell>
        <mxCell id="h6HrE7nHWte762xZoorV-43" value="" style="rounded=0;whiteSpace=wrap;html=1;fontSize=20;rotation=90;" parent="1" vertex="1">
          <mxGeometry x="811.65" y="583.66" width="154.69" height="10" as="geometry" />
        </mxCell>
        <mxCell id="h6HrE7nHWte762xZoorV-45" value="6. AssumeRoleWithWebIdentity" style="text;html=1;strokeColor=none;fillColor=none;align=center;verticalAlign=middle;whiteSpace=wrap;rounded=0;fontSize=12;" parent="1" vertex="1">
          <mxGeometry x="672" y="516.65" width="174" height="30" as="geometry" />
        </mxCell>
        <mxCell id="h6HrE7nHWte762xZoorV-46" value="" style="endArrow=classic;html=1;rounded=0;strokeWidth=2;fontSize=20;" parent="1" edge="1">
          <mxGeometry width="50" height="50" relative="1" as="geometry">
            <mxPoint x="634" y="550.7800000000001" as="sourcePoint" />
            <mxPoint x="883" y="550.7800000000001" as="targetPoint" />
          </mxGeometry>
        </mxCell>
        <mxCell id="h6HrE7nHWte762xZoorV-47" value="" style="edgeStyle=orthogonalEdgeStyle;html=1;align=left;spacingLeft=2;endArrow=block;rounded=0;strokeWidth=2;fontSize=12;" parent="1" edge="1">
          <mxGeometry x="0.4667" y="26" relative="1" as="geometry">
            <mxPoint x="895.0000000000001" y="574.02" as="sourcePoint" />
            <Array as="points">
              <mxPoint x="961.13" y="573.89" />
              <mxPoint x="961.13" y="611.89" />
              <mxPoint x="900.13" y="611.89" />
            </Array>
            <mxPoint x="895.13" y="611.89" as="targetPoint" />
            <mxPoint as="offset" />
          </mxGeometry>
        </mxCell>
        <mxCell id="h6HrE7nHWte762xZoorV-48" value="7. Generate temporary credentials + assign role&amp;nbsp;" style="text;html=1;strokeColor=none;fillColor=none;align=center;verticalAlign=middle;whiteSpace=wrap;rounded=0;fontSize=12;" parent="1" vertex="1">
          <mxGeometry x="966.13" y="579.08" width="152.87" height="30" as="geometry" />
        </mxCell>
        <mxCell id="h6HrE7nHWte762xZoorV-49" value="" style="endArrow=none;html=1;rounded=0;strokeWidth=2;fontSize=20;startArrow=classic;startFill=1;endFill=0;" parent="1" edge="1">
          <mxGeometry width="50" height="50" relative="1" as="geometry">
            <mxPoint x="634.5" y="637.89" as="sourcePoint" />
            <mxPoint x="883.5" y="637.89" as="targetPoint" />
          </mxGeometry>
        </mxCell>
        <mxCell id="h6HrE7nHWte762xZoorV-50" value="8. Send temporary credentials" style="text;html=1;strokeColor=none;fillColor=none;align=center;verticalAlign=middle;whiteSpace=wrap;rounded=0;fontSize=12;" parent="1" vertex="1">
          <mxGeometry x="674" y="604.0799999999999" width="166" height="30" as="geometry" />
        </mxCell>
        <mxCell id="h6HrE7nHWte762xZoorV-51" value="" style="endArrow=none;html=1;rounded=0;strokeWidth=2;fontSize=20;startArrow=classic;startFill=1;endFill=0;" parent="1" edge="1">
          <mxGeometry width="50" height="50" relative="1" as="geometry">
            <mxPoint x="374.5" y="661.8099999999998" as="sourcePoint" />
            <mxPoint x="623.5" y="661.8099999999998" as="targetPoint" />
          </mxGeometry>
        </mxCell>
        <mxCell id="h6HrE7nHWte762xZoorV-52" value="9. Send temporary credentials" style="text;html=1;strokeColor=none;fillColor=none;align=center;verticalAlign=middle;whiteSpace=wrap;rounded=0;fontSize=12;" parent="1" vertex="1">
          <mxGeometry x="414" y="626.9999999999999" width="166" height="30" as="geometry" />
        </mxCell>
        <mxCell id="h6HrE7nHWte762xZoorV-56" value="" style="endArrow=none;html=1;rounded=0;fontSize=20;strokeWidth=2;startArrow=none;" parent="1" source="h6HrE7nHWte762xZoorV-63" edge="1">
          <mxGeometry width="50" height="50" relative="1" as="geometry">
            <mxPoint x="1139" y="830" as="sourcePoint" />
            <mxPoint x="1139.25" y="279.5" as="targetPoint" />
          </mxGeometry>
        </mxCell>
        <mxCell id="h6HrE7nHWte762xZoorV-57" value="11. Upload a GPG Public Key" style="text;html=1;strokeColor=none;fillColor=none;align=center;verticalAlign=middle;whiteSpace=wrap;rounded=0;fontSize=12;" parent="1" vertex="1">
          <mxGeometry x="661" y="793" width="166" height="30" as="geometry" />
        </mxCell>
        <mxCell id="h6HrE7nHWte762xZoorV-58" value="" style="endArrow=classic;html=1;rounded=0;strokeWidth=2;fontSize=20;" parent="1" edge="1">
          <mxGeometry width="50" height="50" relative="1" as="geometry">
            <mxPoint x="374.0000000000002" y="828.1300000000002" as="sourcePoint" />
            <mxPoint x="1133" y="826" as="targetPoint" />
          </mxGeometry>
        </mxCell>
        <mxCell id="h6HrE7nHWte762xZoorV-63" value="" style="rounded=0;whiteSpace=wrap;html=1;fontSize=20;rotation=90;" parent="1" vertex="1">
          <mxGeometry x="1081.66" y="851.66" width="114.69" height="10" as="geometry" />
        </mxCell>
        <mxCell id="h6HrE7nHWte762xZoorV-66" value="" style="endArrow=none;html=1;rounded=0;fontSize=20;strokeWidth=2;" parent="1" target="h6HrE7nHWte762xZoorV-63" edge="1">
          <mxGeometry width="50" height="50" relative="1" as="geometry">
            <mxPoint x="1140" y="960" as="sourcePoint" />
            <mxPoint x="1139.25" y="279.5" as="targetPoint" />
          </mxGeometry>
        </mxCell>
        <mxCell id="h6HrE7nHWte762xZoorV-67" value="12. HTTP 200 code" style="text;html=1;strokeColor=none;fillColor=none;align=center;verticalAlign=middle;whiteSpace=wrap;rounded=0;fontSize=12;" parent="1" vertex="1">
          <mxGeometry x="660" y="857" width="166" height="30" as="geometry" />
        </mxCell>
        <mxCell id="h6HrE7nHWte762xZoorV-68" value="" style="endArrow=none;html=1;rounded=0;strokeWidth=2;fontSize=20;startArrow=classic;startFill=1;endFill=0;" parent="1" edge="1">
          <mxGeometry width="50" height="50" relative="1" as="geometry">
            <mxPoint x="375.0000000000002" y="892.1300000000001" as="sourcePoint" />
            <mxPoint x="1134" y="890" as="targetPoint" />
          </mxGeometry>
        </mxCell>
        <mxCell id="h6HrE7nHWte762xZoorV-69" value="" style="endArrow=none;html=1;rounded=0;strokeWidth=2;fontSize=20;startArrow=classic;startFill=1;endFill=0;" parent="1" edge="1">
          <mxGeometry width="50" height="50" relative="1" as="geometry">
            <mxPoint x="114.5" y="916.81" as="sourcePoint" />
            <mxPoint x="363.4999999999998" y="916.81" as="targetPoint" />
          </mxGeometry>
        </mxCell>
        <mxCell id="h6HrE7nHWte762xZoorV-70" value="13. Print output to stdout" style="text;html=1;strokeColor=none;fillColor=none;align=center;verticalAlign=middle;whiteSpace=wrap;rounded=0;fontSize=12;" parent="1" vertex="1">
          <mxGeometry x="156" y="882" width="166" height="30" as="geometry" />
        </mxCell>
        <mxCell id="h6HrE7nHWte762xZoorV-77" value="" style="rounded=0;whiteSpace=wrap;html=1;fontSize=20;rotation=90;" parent="1" vertex="1">
          <mxGeometry x="239.32" y="629.75" width="257.36" height="10" as="geometry" />
        </mxCell>
        <mxCell id="h6HrE7nHWte762xZoorV-78" value="" style="endArrow=none;html=1;rounded=0;fontSize=20;strokeWidth=2;startArrow=none;" parent="1" source="h6HrE7nHWte762xZoorV-79" target="h6HrE7nHWte762xZoorV-77" edge="1">
          <mxGeometry width="50" height="50" relative="1" as="geometry">
            <mxPoint x="369" y="890" as="sourcePoint" />
            <mxPoint x="368.15439016172513" y="471.70500000000015" as="targetPoint" />
          </mxGeometry>
        </mxCell>
        <mxCell id="h6HrE7nHWte762xZoorV-79" value="" style="rounded=0;whiteSpace=wrap;html=1;fontSize=20;rotation=90;" parent="1" vertex="1">
          <mxGeometry x="297.64" y="859.65" width="140.72" height="10" as="geometry" />
        </mxCell>
        <mxCell id="h6HrE7nHWte762xZoorV-80" value="" style="endArrow=none;html=1;rounded=0;fontSize=20;strokeWidth=2;" parent="1" target="h6HrE7nHWte762xZoorV-79" edge="1">
          <mxGeometry width="50" height="50" relative="1" as="geometry">
            <mxPoint x="369" y="960" as="sourcePoint" />
            <mxPoint x="368.2970174621455" y="683.5050000000001" as="targetPoint" />
          </mxGeometry>
        </mxCell>
        <mxCell id="h6HrE7nHWte762xZoorV-81" value="" style="edgeStyle=orthogonalEdgeStyle;html=1;align=left;spacingLeft=2;endArrow=block;rounded=0;strokeWidth=2;fontSize=12;" parent="1" edge="1">
          <mxGeometry x="0.4667" y="26" relative="1" as="geometry">
            <mxPoint x="373" y="709.02" as="sourcePoint" />
            <Array as="points">
              <mxPoint x="439.13" y="708.89" />
              <mxPoint x="439.13" y="746.89" />
              <mxPoint x="378.13" y="746.89" />
            </Array>
            <mxPoint x="373.1300000000001" y="746.8899999999999" as="targetPoint" />
            <mxPoint as="offset" />
          </mxGeometry>
        </mxCell>
        <mxCell id="h6HrE7nHWte762xZoorV-82" value="10. Generate presigned URL" style="text;html=1;strokeColor=none;fillColor=none;align=center;verticalAlign=middle;whiteSpace=wrap;rounded=0;fontSize=12;" parent="1" vertex="1">
          <mxGeometry x="442.13" y="714.08" width="152.87" height="30" as="geometry" />
        </mxCell>
        <mxCell id="Mg1U7dCGlL-2HM1MjLGh-1" value="&lt;font style=&quot;font-size: 18px;&quot;&gt;User&lt;/font&gt;" style="sketch=0;aspect=fixed;pointerEvents=1;shadow=0;dashed=0;html=1;strokeColor=none;labelPosition=center;verticalLabelPosition=bottom;verticalAlign=top;align=center;fillColor=#00188D;shape=mxgraph.azure.user" vertex="1" parent="1">
          <mxGeometry x="69.41" y="140.25" width="79.19" height="84.25" as="geometry" />
        </mxCell>
        <mxCell id="Mg1U7dCGlL-2HM1MjLGh-2" value="&lt;font style=&quot;font-size: 18px;&quot;&gt;Shell&lt;/font&gt;" style="shape=image;html=1;verticalAlign=top;verticalLabelPosition=bottom;labelBackgroundColor=#ffffff;imageAspect=0;aspect=fixed;image=https://cdn1.iconfinder.com/data/icons/ionicons-fill-vol-2/512/terminal-128.png" vertex="1" parent="1">
          <mxGeometry x="315" y="126" width="98.5" height="98.5" as="geometry" />
        </mxCell>
        <mxCell id="Mg1U7dCGlL-2HM1MjLGh-3" value="&lt;font style=&quot;font-size: 18px;&quot;&gt;Amazon S3&lt;/font&gt;" style="sketch=0;points=[[0,0,0],[0.25,0,0],[0.5,0,0],[0.75,0,0],[1,0,0],[0,1,0],[0.25,1,0],[0.5,1,0],[0.75,1,0],[1,1,0],[0,0.25,0],[0,0.5,0],[0,0.75,0],[1,0.25,0],[1,0.5,0],[1,0.75,0]];outlineConnect=0;fontColor=#232F3E;gradientColor=#60A337;gradientDirection=north;fillColor=#277116;strokeColor=#ffffff;dashed=0;verticalLabelPosition=bottom;verticalAlign=top;align=center;html=1;fontSize=12;fontStyle=0;aspect=fixed;shape=mxgraph.aws4.resourceIcon;resIcon=mxgraph.aws4.s3;" vertex="1" parent="1">
          <mxGeometry x="1090" y="126" width="88.5" height="88.5" as="geometry" />
        </mxCell>
      </root>
    </mxGraphModel>
  </diagram>
</mxfile>
